<svg width="10.020020" height="5.003906" viewBox="0 0 10.02 5.00391" fill="none" xmlns="http://www.w3.org/2000/svg" xmlns:xlink="http://www.w3.org/1999/xlink">
	<desc>
			Created with Pixso.
	</desc>
	<defs/>
	<path id="Vector" d="M5.0022 5.0022C4.83521 5.00244 4.67334 4.94434 4.54492 4.83789L0.258057 1.26538C0.112305 1.14429 0.0205078 0.969971 0.00292969 0.781006C-0.0144043 0.592041 0.0439453 0.404053 0.165283 0.258057C0.286377 0.112305 0.460693 0.0205078 0.649658 0.00292969C0.838623 -0.0144043 1.02661 0.0439453 1.17261 0.165283L5.0022 3.36597L8.83179 0.279541C8.90479 0.220215 8.98877 0.175781 9.0791 0.14917C9.16943 0.122314 9.26392 0.11377 9.35767 0.123779C9.45117 0.133545 9.54199 0.162109 9.62451 0.207275C9.70728 0.252197 9.78003 0.313232 9.83911 0.386719C9.90454 0.460205 9.9541 0.546387 9.98462 0.639893C10.0151 0.733398 10.0261 0.832275 10.0168 0.930176C10.0073 1.02808 9.97778 1.12305 9.92993 1.20898C9.88232 1.29492 9.81714 1.37012 9.73901 1.42993L5.45215 4.88062C5.32007 4.97046 5.16162 5.01318 5.0022 5.0022Z" fill="#6F6E6E" fill-opacity="1.000000" fill-rule="nonzero"/>
</svg>
